<svg viewBox="0 0 55 64" xmlns="http://www.w3.org/2000/svg" fill-rule="evenodd" clip-rule="evenodd" stroke-linejoin="round" stroke-miterlimit="2"><path d="M14.171 22.31a14.712 14.712 0 01-1.602-6.698c0-8.165 6.628-14.793 14.793-14.793 8.164 0 14.793 6.628 14.793 14.793 0 2.379-.563 4.628-1.563 6.62 7.749.464 13.899 6.903 13.899 14.767 0 8.164-6.629 14.793-14.793 14.793a14.72 14.72 0 01-7.968-2.33l8.153 12.06a1.46 1.46 0 01-1.21 2.279H16.05a1.46 1.46 0 01-1.21-2.279L22.9 49.6a14.719 14.719 0 01-7.876 2.272C6.859 51.872.231 45.243.231 37.079c0-7.878 6.171-14.326 13.94-14.769z"/></svg>