<svg viewBox="0 0 55 64" xmlns="http://www.w3.org/2000/svg" fill-rule="evenodd" clip-rule="evenodd" stroke-linejoin="round" stroke-miterlimit="2"><path d="M3.87 30.507L25.899 1.683a2 2 0 013.178 0l21.637 28.312a14.742 14.742 0 013.899 10.004c0 8.164-6.629 14.793-14.793 14.793-2.003 0-3.913-.399-5.656-1.122l5.691 7.81a1.46 1.46 0 01-1.181 2.321H16.293a1.462 1.462 0 01-1.18-2.321l5.608-7.696a14.745 14.745 0 01-5.575 1.088C6.982 54.872.353 48.243.353 40.079c0-2.93.853-5.661 2.325-7.96h-.04l.295-.386c.291-.425.604-.834.937-1.226z"/></svg>